<?xml version="1.0" encoding="UTF-8" standalone="no"?>
<!-- Created with Inkscape (http://www.inkscape.org/) -->

<svg
   xmlns:dc="http://purl.org/dc/elements/1.1/"
   xmlns:cc="http://creativecommons.org/ns#"
   xmlns:rdf="http://www.w3.org/1999/02/22-rdf-syntax-ns#"
   xmlns:svg="http://www.w3.org/2000/svg"
   xmlns="http://www.w3.org/2000/svg"
   xmlns:sodipodi="http://sodipodi.sourceforge.net/DTD/sodipodi-0.dtd"
   xmlns:inkscape="http://www.inkscape.org/namespaces/inkscape"
   width="21mm"
   height="21mm"
   viewBox="0 0 21 21"
   version="1.1"
   id="svg3812"
   inkscape:version="0.92.4 (fd57863, 2020-04-02)"
   sodipodi:docname="safari-pinned-tab.svg">
  <defs
     id="defs3806" />
  <sodipodi:namedview
     id="base"
     pagecolor="#ffffff"
     bordercolor="#666666"
     borderopacity="1.0"
     inkscape:pageopacity="0.0"
     inkscape:pageshadow="2"
     inkscape:zoom="11.313709"
     inkscape:cx="74.842371"
     inkscape:cy="62.945971"
     inkscape:document-units="mm"
     inkscape:current-layer="layer1"
     showgrid="false"
     inkscape:window-width="2560"
     inkscape:window-height="1347"
     inkscape:window-x="1920"
     inkscape:window-y="0"
     inkscape:window-maximized="1" />
  <metadata
     id="metadata3809">
    <rdf:RDF>
      <cc:Work
         rdf:about="">
        <dc:format>image/svg+xml</dc:format>
        <dc:type
           rdf:resource="http://purl.org/dc/dcmitype/StillImage" />
        <dc:title></dc:title>
      </cc:Work>
    </rdf:RDF>
  </metadata>
  <g
     inkscape:label="Layer 1"
     inkscape:groupmode="layer"
     id="layer1"
     transform="translate(0,-276)">
    <rect
       style="opacity:1;fill:#114c00;fill-opacity:1;stroke-width:0.05227449"
       id="rect845-9-1"
       width="14.382798"
       height="14.368175"
       x="-194.90913"
       y="192.05775"
       ry="1.1195982"
       transform="matrix(0.66743824,-0.74466515,0.67502716,0.73779288,0,0)"
       inkscape:export-xdpi="89.919998"
       inkscape:export-ydpi="89.919998"
       inkscape:export-filename="F:\Code\priveprojecten\httplaceholder\httplaceholder\gui\public\img\logo.png" />
    <rect
       style="opacity:1;fill:#113c00;fill-opacity:1;stroke-width:0.05227449"
       id="rect845-9"
       width="14.382798"
       height="14.368175"
       x="-193.72952"
       y="192.80273"
       ry="1.1195982"
       transform="matrix(0.66743824,-0.74466515,0.67502716,0.73779288,0,0)"
       inkscape:export-xdpi="89.919998"
       inkscape:export-ydpi="89.919998"
       inkscape:export-filename="F:\Code\priveprojecten\httplaceholder\httplaceholder\gui\public\img\logo.png" />
    <rect
       style="opacity:1;fill:#112b00;fill-opacity:1;stroke-width:0.05227449"
       id="rect845"
       width="14.382798"
       height="14.368175"
       x="-192.5499"
       y="193.54771"
       ry="1.1195982"
       transform="matrix(0.66743824,-0.74466515,0.67502716,0.73779288,0,0)"
       inkscape:export-xdpi="89.919998"
       inkscape:export-ydpi="89.919998"
       inkscape:export-filename="F:\Code\priveprojecten\httplaceholder\httplaceholder\gui\public\img\logo.png" />
    <path
       style="fill:#000000;stroke-width:0.08928572"
       d="m 39.057414,77.832535 c -0.503367,-0.119286 -1.224277,-0.423472 -1.523927,-0.643017 -0.150609,-0.110348 -1.322976,-1.345721 -2.60526,-2.745274 -3.71295,-4.052512 -5.916748,-6.460121 -8.540519,-9.330357 -1.34671,-1.473215 -3.074848,-3.361608 -3.840305,-4.196429 -0.765457,-0.834821 -2.493136,-2.723214 -3.839286,-4.196429 -1.34615,-1.473214 -3.073828,-3.361607 -3.839285,-4.196428 -0.765457,-0.834822 -2.49353,-2.723215 -3.84016,-4.196429 C 9.682041,46.854958 7.9962988,45.014286 7.2825777,44.237791 5.2879141,42.067689 4.9611287,41.484802 4.8895619,39.969363 c -0.047353,-1.002707 0.058889,-1.586897 0.4300197,-2.364531 0.2760654,-0.578443 0.5644763,-0.915733 5.2258374,-6.111493 3.271171,-3.646193 8.904873,-9.932411 15.524417,-17.32251 1.47082,-1.642033 3.188454,-3.558059 3.816965,-4.2578355 1.729259,-1.9253402 3.290502,-3.6663401 4.663906,-5.2008928 2.291625,-2.5605164 2.900607,-3.0946992 3.869036,-3.3938163 0.736055,-0.2273443 1.454226,-0.2253708 2.203496,0.00606 l 0.594645,0.1836673 0.551367,-0.51046833 c 0.303252,-0.28075759 0.813332,-0.63461322 1.133509,-0.7863459 0.530229,-0.25127532 0.661766,-0.27583492 1.475,-0.27539917 0.78492,4.2053e-4 0.955849,0.02993073 1.413919,0.2441071 0.286585,0.13399579 0.67654,0.36676916 0.866568,0.51727413 C 47.160328,1.0948305 78.154313,34.989754 78.55217,35.576268 c 0.972314,1.433368 0.972314,3.624104 0,5.057331 -0.313928,0.462743 -30.428669,34.133306 -31.248954,34.938701 -1.045446,1.026468 -2.687232,1.385254 -3.894715,0.851128 l -0.394573,-0.17454 -0.491319,0.4721 c -0.270226,0.259655 -0.666489,0.574734 -0.880584,0.700177 -0.73716,0.431918 -1.790464,0.599563 -2.584611,0.41137 z"
       id="path3903"
       inkscape:connector-curvature="0"
       transform="matrix(0.26458333,0,0,0.26458333,0,276)" />
    <path
       style="fill:#000000;stroke-width:0.08928572"
       d="M 34.109903,79.052637 C 33.401101,78.880268 32.786067,78.490618 32.067067,77.758414 30.721937,76.388581 1.0108255,43.85162 0.75798905,43.471501 0.22948544,42.676941 0.10061389,42.187495 0.09726136,40.962101 0.09380887,39.700176 0.22595097,39.230055 0.83552035,38.335603 1.2374789,37.745788 31.526872,3.9461649 32.226432,3.3068073 c 0.705781,-0.6450448 1.298863,-0.8616284 2.374543,-0.8671435 0.617313,-0.00317 0.963778,0.040239 1.272739,0.1594453 l 0.424525,0.1637941 -0.424525,0.4697976 C 34.590053,4.6532549 7.6293517,34.737244 6.8973607,35.565846 c -1.6786778,1.900237 -1.9283165,2.368607 -2.0064989,3.764585 -0.097512,1.741109 0.2974166,2.637304 1.9584238,4.44417 0.3160009,0.34375 4.9107234,5.366071 10.2104924,11.160714 7.696339,8.414995 16.018455,17.503451 19.817982,21.642919 0.245536,0.267503 0.616478,0.594475 0.824316,0.726603 l 0.377886,0.240234 -0.515796,0.491987 c -1.012985,0.966223 -2.210012,1.318158 -3.454263,1.015579 z"
       id="path3905"
       inkscape:connector-curvature="0"
       transform="matrix(0.26458333,0,0,0.26458333,0,276)" />
    <path
       style="fill:#000000;stroke-width:0.00390625"
       d=""
       id="path3907"
       inkscape:connector-curvature="0"
       transform="matrix(0.26458333,0,0,0.26458333,0,276)" />
  </g>
</svg>
